<?xml version="1.0" encoding="UTF-8" standalone="no"?>
<!DOCTYPE svg PUBLIC "-//W3C//DTD SVG 1.1//EN"
 "http://www.w3.org/Graphics/SVG/1.1/DTD/svg11.dtd">
<!-- Generated by graphviz version 2.47.0 (20210316.0004)
 -->
<!-- Title: dependencies Pages: 1 -->
<svg width="2194pt" height="284pt"
 viewBox="0.00 0.00 2194.00 284.00" xmlns="http://www.w3.org/2000/svg" xmlns:xlink="http://www.w3.org/1999/xlink">
<g id="graph0" class="graph" transform="scale(1 1) rotate(0) translate(4 280)">
<title>dependencies</title>
<polygon fill="white" stroke="transparent" points="-4,4 -4,-280 2190,-280 2190,4 -4,4"/>
<text text-anchor="start" x="1072.01" y="-42.4" font-family="sans-serif" font-weight="bold" font-size="14.00">Legend</text>
<polygon fill="#ffffb3" stroke="transparent" points="859,-10 859,-30 879,-30 879,-10 859,-10"/>
<text text-anchor="start" x="882.63" y="-15.4" font-family="sans-serif" font-size="14.00"> &#160;Declarations</text>
<polygon fill="#8dd3c7" stroke="transparent" points="972,-10 972,-30 992,-30 992,-10 972,-10"/>
<text text-anchor="start" x="995.73" y="-15.4" font-family="sans-serif" font-size="14.00"> &#160;Module</text>
<polygon fill="#80b1d3" stroke="transparent" points="1058,-10 1058,-30 1078,-30 1078,-10 1058,-10"/>
<text text-anchor="start" x="1081.78" y="-15.4" font-family="sans-serif" font-size="14.00"> &#160;Bootstrap</text>
<polygon fill="#fdb462" stroke="transparent" points="1155,-10 1155,-30 1175,-30 1175,-10 1155,-10"/>
<text text-anchor="start" x="1178.67" y="-15.4" font-family="sans-serif" font-size="14.00"> &#160;Providers</text>
<polygon fill="#fb8072" stroke="transparent" points="1251,-10 1251,-30 1271,-30 1271,-10 1251,-10"/>
<text text-anchor="start" x="1274.73" y="-15.4" font-family="sans-serif" font-size="14.00"> &#160;Exports</text>
<g id="clust1" class="cluster">
<title>cluster_AppModule</title>
<polygon fill="none" stroke="black" stroke-dasharray="1,5" points="8,-70 8,-268 2178,-268 2178,-70 8,-70"/>
</g>
<g id="clust2" class="cluster">
<title>cluster_AppModule_declarations</title>
<polygon fill="none" stroke="black" points="168,-78 168,-130 2170,-130 2170,-78 168,-78"/>
</g>
<g id="clust17" class="cluster">
<title>cluster_AppModule_imports</title>
<polygon fill="none" stroke="black" points="16,-78 16,-130 160,-130 160,-78 16,-78"/>
</g>
<g id="clust19" class="cluster">
<title>cluster_AppModule_bootstrap</title>
<polygon fill="none" stroke="black" points="1071,-208 1071,-260 1195,-260 1195,-208 1071,-208"/>
</g>
<!-- AlertasComponent -->
<g id="node1" class="node">
<title>AlertasComponent</title>
<polygon fill="#ffffb3" stroke="black" points="2161.75,-122 2040.25,-122 2040.25,-86 2161.75,-86 2161.75,-122"/>
<text text-anchor="middle" x="2101" y="-99.8" font-family="Times,serif" font-size="14.00">AlertasComponent</text>
</g>
<!-- AppModule -->
<g id="node15" class="node">
<title>AppModule</title>
<polygon fill="#8dd3c7" stroke="black" points="1174.66,-187 1171.66,-191 1150.66,-191 1147.66,-187 1091.34,-187 1091.34,-151 1174.66,-151 1174.66,-187"/>
<text text-anchor="middle" x="1133" y="-164.8" font-family="Times,serif" font-size="14.00">AppModule</text>
</g>
<!-- AlertasComponent&#45;&gt;AppModule -->
<g id="edge1" class="edge">
<title>AlertasComponent&#45;&gt;AppModule</title>
<path fill="none" stroke="black" d="M2101,-122.32C2101,-145.66 2101,-183 2101,-183 2101,-183 1184.9,-183 1184.9,-183"/>
<polygon fill="black" stroke="black" points="1184.9,-179.5 1174.9,-183 1184.9,-186.5 1184.9,-179.5"/>
</g>
<!-- AppComponent -->
<g id="node2" class="node">
<title>AppComponent</title>
<polygon fill="#ffffb3" stroke="black" points="2021.94,-122 1916.06,-122 1916.06,-86 2021.94,-86 2021.94,-122"/>
<text text-anchor="middle" x="1969" y="-99.8" font-family="Times,serif" font-size="14.00">AppComponent</text>
</g>
<!-- AppComponent&#45;&gt;AppModule -->
<g id="edge2" class="edge">
<title>AppComponent&#45;&gt;AppModule</title>
<path fill="none" stroke="black" d="M1969,-122.29C1969,-144.21 1969,-178 1969,-178 1969,-178 1184.74,-178 1184.74,-178"/>
<polygon fill="black" stroke="black" points="1184.74,-174.5 1174.74,-178 1184.74,-181.5 1184.74,-174.5"/>
</g>
<!-- CadastrarComponent -->
<g id="node3" class="node">
<title>CadastrarComponent</title>
<polygon fill="#ffffb3" stroke="black" points="1898.47,-122 1763.53,-122 1763.53,-86 1898.47,-86 1898.47,-122"/>
<text text-anchor="middle" x="1831" y="-99.8" font-family="Times,serif" font-size="14.00">CadastrarComponent</text>
</g>
<!-- CadastrarComponent&#45;&gt;AppModule -->
<g id="edge3" class="edge">
<title>CadastrarComponent&#45;&gt;AppModule</title>
<path fill="none" stroke="black" d="M1831,-122.03C1831,-142.77 1831,-174 1831,-174 1831,-174 1184.83,-174 1184.83,-174"/>
<polygon fill="black" stroke="black" points="1184.83,-170.5 1174.83,-174 1184.83,-177.5 1184.83,-170.5"/>
</g>
<!-- EntrarComponent -->
<g id="node4" class="node">
<title>EntrarComponent</title>
<polygon fill="#ffffb3" stroke="black" points="1745.31,-122 1628.69,-122 1628.69,-86 1745.31,-86 1745.31,-122"/>
<text text-anchor="middle" x="1687" y="-99.8" font-family="Times,serif" font-size="14.00">EntrarComponent</text>
</g>
<!-- EntrarComponent&#45;&gt;AppModule -->
<g id="edge4" class="edge">
<title>EntrarComponent&#45;&gt;AppModule</title>
<path fill="none" stroke="black" d="M1687,-122.11C1687,-141.34 1687,-169 1687,-169 1687,-169 1185.09,-169 1185.09,-169"/>
<polygon fill="black" stroke="black" points="1185.09,-165.5 1175.09,-169 1185.09,-172.5 1185.09,-165.5"/>
</g>
<!-- HomeComponent -->
<g id="node5" class="node">
<title>HomeComponent</title>
<polygon fill="#ffffb3" stroke="black" points="1610.55,-122 1495.45,-122 1495.45,-86 1610.55,-86 1610.55,-122"/>
<text text-anchor="middle" x="1553" y="-99.8" font-family="Times,serif" font-size="14.00">HomeComponent</text>
</g>
<!-- HomeComponent&#45;&gt;AppModule -->
<g id="edge5" class="edge">
<title>HomeComponent&#45;&gt;AppModule</title>
<path fill="none" stroke="black" d="M1553,-122.3C1553,-140.27 1553,-165 1553,-165 1553,-165 1184.81,-165 1184.81,-165"/>
<polygon fill="black" stroke="black" points="1184.81,-161.5 1174.81,-165 1184.81,-168.5 1184.81,-161.5"/>
</g>
<!-- InicioComponent -->
<g id="node6" class="node">
<title>InicioComponent</title>
<polygon fill="#ffffb3" stroke="black" points="1476.99,-122 1363.01,-122 1363.01,-86 1476.99,-86 1476.99,-122"/>
<text text-anchor="middle" x="1420" y="-99.8" font-family="Times,serif" font-size="14.00">InicioComponent</text>
</g>
<!-- InicioComponent&#45;&gt;AppModule -->
<g id="edge6" class="edge">
<title>InicioComponent&#45;&gt;AppModule</title>
<path fill="none" stroke="black" d="M1420,-122.03C1420,-138.4 1420,-160 1420,-160 1420,-160 1184.73,-160 1184.73,-160"/>
<polygon fill="black" stroke="black" points="1184.73,-156.5 1174.73,-160 1184.73,-163.5 1184.73,-156.5"/>
</g>
<!-- MenuComponent -->
<g id="node7" class="node">
<title>MenuComponent</title>
<polygon fill="#ffffb3" stroke="black" points="1344.99,-122 1231.01,-122 1231.01,-86 1344.99,-86 1344.99,-122"/>
<text text-anchor="middle" x="1288" y="-99.8" font-family="Times,serif" font-size="14.00">MenuComponent</text>
</g>
<!-- MenuComponent&#45;&gt;AppModule -->
<g id="edge7" class="edge">
<title>MenuComponent&#45;&gt;AppModule</title>
<path fill="none" stroke="black" d="M1288,-122.19C1288,-137.18 1288,-156 1288,-156 1288,-156 1184.95,-156 1184.95,-156"/>
<polygon fill="black" stroke="black" points="1184.95,-152.5 1174.95,-156 1184.95,-159.5 1184.95,-152.5"/>
</g>
<!-- PostagemEditComponent -->
<g id="node8" class="node">
<title>PostagemEditComponent</title>
<polygon fill="#ffffb3" stroke="black" points="1212.6,-122 1053.4,-122 1053.4,-86 1212.6,-86 1212.6,-122"/>
<text text-anchor="middle" x="1133" y="-99.8" font-family="Times,serif" font-size="14.00">PostagemEditComponent</text>
</g>
<!-- PostagemEditComponent&#45;&gt;AppModule -->
<g id="edge8" class="edge">
<title>PostagemEditComponent&#45;&gt;AppModule</title>
<path fill="none" stroke="black" d="M1133,-122.11C1133,-122.11 1133,-140.99 1133,-140.99"/>
<polygon fill="black" stroke="black" points="1129.5,-140.99 1133,-150.99 1136.5,-140.99 1129.5,-140.99"/>
</g>
<!-- RodapeComponent -->
<g id="node9" class="node">
<title>RodapeComponent</title>
<polygon fill="#ffffb3" stroke="black" points="1035.1,-122 910.9,-122 910.9,-86 1035.1,-86 1035.1,-122"/>
<text text-anchor="middle" x="973" y="-99.8" font-family="Times,serif" font-size="14.00">RodapeComponent</text>
</g>
<!-- RodapeComponent&#45;&gt;AppModule -->
<g id="edge9" class="edge">
<title>RodapeComponent&#45;&gt;AppModule</title>
<path fill="none" stroke="black" d="M973,-122.19C973,-137.18 973,-156 973,-156 973,-156 1080.96,-156 1080.96,-156"/>
<polygon fill="black" stroke="black" points="1080.96,-159.5 1090.96,-156 1080.96,-152.5 1080.96,-159.5"/>
</g>
<!-- SobreComponent -->
<g id="node10" class="node">
<title>SobreComponent</title>
<polygon fill="#ffffb3" stroke="black" points="892.99,-122 779.01,-122 779.01,-86 892.99,-86 892.99,-122"/>
<text text-anchor="middle" x="836" y="-99.8" font-family="Times,serif" font-size="14.00">SobreComponent</text>
</g>
<!-- SobreComponent&#45;&gt;AppModule -->
<g id="edge10" class="edge">
<title>SobreComponent&#45;&gt;AppModule</title>
<path fill="none" stroke="black" d="M836,-122.03C836,-138.4 836,-160 836,-160 836,-160 1081.08,-160 1081.08,-160"/>
<polygon fill="black" stroke="black" points="1081.08,-163.5 1091.08,-160 1081.08,-156.5 1081.08,-163.5"/>
</g>
<!-- TemaComponent -->
<g id="node11" class="node">
<title>TemaComponent</title>
<polygon fill="#ffffb3" stroke="black" points="760.7,-122 647.3,-122 647.3,-86 760.7,-86 760.7,-122"/>
<text text-anchor="middle" x="704" y="-99.8" font-family="Times,serif" font-size="14.00">TemaComponent</text>
</g>
<!-- TemaComponent&#45;&gt;AppModule -->
<g id="edge11" class="edge">
<title>TemaComponent&#45;&gt;AppModule</title>
<path fill="none" stroke="black" d="M704,-122.3C704,-140.27 704,-165 704,-165 704,-165 1081.08,-165 1081.08,-165"/>
<polygon fill="black" stroke="black" points="1081.08,-168.5 1091.08,-165 1081.08,-161.5 1081.08,-168.5"/>
</g>
<!-- TemaDeleteComponent -->
<g id="node12" class="node">
<title>TemaDeleteComponent</title>
<polygon fill="#ffffb3" stroke="black" points="629.74,-122 480.26,-122 480.26,-86 629.74,-86 629.74,-122"/>
<text text-anchor="middle" x="555" y="-99.8" font-family="Times,serif" font-size="14.00">TemaDeleteComponent</text>
</g>
<!-- TemaDeleteComponent&#45;&gt;AppModule -->
<g id="edge12" class="edge">
<title>TemaDeleteComponent&#45;&gt;AppModule</title>
<path fill="none" stroke="black" d="M555,-122.11C555,-141.34 555,-169 555,-169 555,-169 1080.97,-169 1080.97,-169"/>
<polygon fill="black" stroke="black" points="1080.97,-172.5 1090.97,-169 1080.97,-165.5 1080.97,-172.5"/>
</g>
<!-- TemaEditComponent -->
<g id="node13" class="node">
<title>TemaEditComponent</title>
<polygon fill="#ffffb3" stroke="black" points="462.04,-122 325.96,-122 325.96,-86 462.04,-86 462.04,-122"/>
<text text-anchor="middle" x="394" y="-99.8" font-family="Times,serif" font-size="14.00">TemaEditComponent</text>
</g>
<!-- TemaEditComponent&#45;&gt;AppModule -->
<g id="edge13" class="edge">
<title>TemaEditComponent&#45;&gt;AppModule</title>
<path fill="none" stroke="black" d="M394,-122.03C394,-142.77 394,-174 394,-174 394,-174 1081.15,-174 1081.15,-174"/>
<polygon fill="black" stroke="black" points="1081.15,-177.5 1091.15,-174 1081.15,-170.5 1081.15,-177.5"/>
</g>
<!-- UserEditComponent -->
<g id="node14" class="node">
<title>UserEditComponent</title>
<polygon fill="#ffffb3" stroke="black" points="307.59,-122 176.41,-122 176.41,-86 307.59,-86 307.59,-122"/>
<text text-anchor="middle" x="242" y="-99.8" font-family="Times,serif" font-size="14.00">UserEditComponent</text>
</g>
<!-- UserEditComponent&#45;&gt;AppModule -->
<g id="edge14" class="edge">
<title>UserEditComponent&#45;&gt;AppModule</title>
<path fill="none" stroke="black" d="M242,-122.29C242,-144.21 242,-178 242,-178 242,-178 1081.22,-178 1081.22,-178"/>
<polygon fill="black" stroke="black" points="1081.22,-181.5 1091.22,-178 1081.22,-174.5 1081.22,-181.5"/>
</g>
<!-- AppComponent  -->
<g id="node17" class="node">
<title>AppComponent </title>
<polygon fill="#80b1d3" stroke="black" points="1187.44,-252 1078.56,-252 1078.56,-216 1187.44,-216 1187.44,-252"/>
<text text-anchor="middle" x="1133" y="-229.8" font-family="Times,serif" font-size="14.00">AppComponent </text>
</g>
<!-- AppModule&#45;&gt;AppComponent  -->
<g id="edge16" class="edge">
<title>AppModule&#45;&gt;AppComponent </title>
<path fill="none" stroke="black" stroke-dasharray="1,5" d="M1133,-187.11C1133,-187.11 1133,-205.99 1133,-205.99"/>
<polygon fill="black" stroke="black" points="1129.5,-205.99 1133,-215.99 1136.5,-205.99 1129.5,-205.99"/>
</g>
<!-- AppRoutingModule -->
<g id="node16" class="node">
<title>AppRoutingModule</title>
<polygon fill="#8dd3c7" stroke="black" points="152.27,-122 149.27,-126 128.27,-126 125.27,-122 23.73,-122 23.73,-86 152.27,-86 152.27,-122"/>
<text text-anchor="middle" x="88" y="-99.8" font-family="Times,serif" font-size="14.00">AppRoutingModule</text>
</g>
<!-- AppRoutingModule&#45;&gt;AppModule -->
<g id="edge15" class="edge">
<title>AppRoutingModule&#45;&gt;AppModule</title>
<path fill="none" stroke="black" d="M88,-122.32C88,-145.66 88,-183 88,-183 88,-183 1081.07,-183 1081.07,-183"/>
<polygon fill="black" stroke="black" points="1081.07,-186.5 1091.07,-183 1081.07,-179.5 1081.07,-186.5"/>
</g>
</g>
</svg>
